HIERARCHY
ROOT Hips
{
	OFFSET 0.00000 0.00000 0.00000
	CHANNELS 6 Xposition Yposition Zposition Zrotation Yrotation Xrotation 
	JOINT LHipJoint
	{
		OFFSET 0 0 0
		CHANNELS 3 Zrotation Yrotation Xrotation
		JOINT LeftUpLeg
		{
			OFFSET 1.77779 -1.88989 0.48267
			CHANNELS 3 Zrotation Yrotation Xrotation
			JOINT LeftLeg
			{
				OFFSET 2.53442 -6.96327 0.00000
				CHANNELS 3 Zrotation Yrotation Xrotation
				JOINT LeftFoot
				{
					OFFSET 2.71068 -7.44755 0.00000
					CHANNELS 3 Zrotation Yrotation Xrotation
					JOINT LeftToeBase
					{
						OFFSET 0.17992 -0.49431 2.22524
						CHANNELS 3 Zrotation Yrotation Xrotation
						End Site
						{
							OFFSET 0.00000 -0.00000 1.14687
						}
					}
				}
			}
		}
	}
	JOINT RHipJoint
	{
		OFFSET 0 0 0
		CHANNELS 3 Zrotation Yrotation Xrotation
		JOINT RightUpLeg
		{
			OFFSET -1.58469 -1.88989 0.48267
			CHANNELS 3 Zrotation Yrotation Xrotation
			JOINT RightLeg
			{
				OFFSET -2.60386 -7.15404 0.00000
				CHANNELS 3 Zrotation Yrotation Xrotation
				JOINT RightFoot
				{
					OFFSET -2.73334 -7.50979 0.00000
					CHANNELS 3 Zrotation Yrotation Xrotation
					JOINT RightToeBase
					{
						OFFSET -0.25618 -0.70384 2.21822
						CHANNELS 3 Zrotation Yrotation Xrotation
						End Site
						{
							OFFSET -0.00000 -0.00000 1.16381
						}
					}
				}
			}
		}
	}
	JOINT LowerBack
	{
		OFFSET 0 0 0
		CHANNELS 3 Zrotation Yrotation Xrotation
		JOINT Spine
		{
			OFFSET 0.03410 2.01612 -0.22230
			CHANNELS 3 Zrotation Yrotation Xrotation
			JOINT Spine1
			{
				OFFSET 0.03465 2.03012 0.00937
				CHANNELS 3 Zrotation Yrotation Xrotation
				JOINT Neck
				{
					OFFSET 0 0 0
					CHANNELS 3 Zrotation Yrotation Xrotation
					JOINT Neck1
					{
						OFFSET -0.00219 1.70459 0.20857
						CHANNELS 3 Zrotation Yrotation Xrotation
						JOINT Head
						{
							OFFSET 0.02518 1.72339 -0.22179
							CHANNELS 3 Zrotation Yrotation Xrotation
							End Site
							{
								OFFSET 0.00282 1.74122 -0.09823
							}
						}
					}
				}
				JOINT LeftShoulder
				{
					OFFSET 0 0 0
					CHANNELS 3 Zrotation Yrotation Xrotation
					JOINT LeftArm
					{
						OFFSET 3.36358 1.00547 -0.37661
						CHANNELS 3 Zrotation Yrotation Xrotation
						JOINT LeftForeArm
						{
							OFFSET 5.06507 -0.00000 0.00000
							CHANNELS 3 Zrotation Yrotation Xrotation
							JOINT LeftHand
							{
								OFFSET 3.60196 -0.00000 0.00000
								CHANNELS 3 Zrotation Yrotation Xrotation
								JOINT LeftFingerBase
								{
									OFFSET 0 0 0
									CHANNELS 3 Zrotation Yrotation Xrotation
									JOINT LeftHandIndex1
									{
										OFFSET 0.45035 -0.00000 0.00000
										CHANNELS 3 Zrotation Yrotation Xrotation
										End Site
										{
											OFFSET 0.36308 -0.00000 0.00000
										}
									}
								}
								JOINT LThumb
								{
									OFFSET 0 0 0
									CHANNELS 3 Zrotation Yrotation Xrotation
									End Site
									{
										OFFSET 0.36862 -0.00000 0.36862
									}
								}
							}
						}
					}
				}
				JOINT RightShoulder
				{
					OFFSET 0 0 0
					CHANNELS 3 Zrotation Yrotation Xrotation
					JOINT RightArm
					{
						OFFSET -3.50159 0.80383 -0.71526
						CHANNELS 3 Zrotation Yrotation Xrotation
						JOINT RightForeArm
						{
							OFFSET -5.36394 -0.00000 0.00000
							CHANNELS 3 Zrotation Yrotation Xrotation
							JOINT RightHand
							{
								OFFSET -3.58035 -0.00000 0.00000
								CHANNELS 3 Zrotation Yrotation Xrotation
								JOINT RightFingerBase
								{
									OFFSET 0 0 0
									CHANNELS 3 Zrotation Yrotation Xrotation
									JOINT RightHandIndex1
									{
										OFFSET -0.66375 -0.00000 0.00000
										CHANNELS 3 Zrotation Yrotation Xrotation
										End Site
										{
											OFFSET -0.53513 -0.00000 0.00000
										}
									}
								}
								JOINT RThumb
								{
									OFFSET 0 0 0
									CHANNELS 3 Zrotation Yrotation Xrotation
									End Site
									{
										OFFSET -0.54330 -0.00000 0.54330
									}
								}
							}
						}
					}
				}
			}
		}
	}
}
MOTION
Frames: 14
Frame Time: .0083333
1.1139 18.0134 -23.7545 0 0 0 0 0 0 -21 0 0 0 0 0 0 0 0 0 0 0 0 0 0 21 0 0 0 0 0 0 0 0 0 0 0 0 0 0 0 0 0 0 0 0 0 0 -16 0 0 21 0 0 11 0 0 0 -8 0 0 0 0 0 0 0 0 0 0 0 0 0 0 0 0 0 0 0 0 8 0 0 0 0 0 0 0 0 0 0 0 0 0 0 0 0 0
1.1139 18.0134 -23.7545 0.6430 -5.5306 -4.3553 0.0000 0.0000 0.0000 -24.9845 -4.6129 -7.1262 1.9371 8.7338 24.9660 0.3146 -3.0132 -9.9861 0.0080 -0.5789 -1.5909 0.0000 0.0000 0.0000 20.3267 7.8458 -19.2402 -13.9798 -19.1079 72.1427 0.0188 -3.8737 -4.6219 -0.0243 -1.0069 2.7678 -0.4701 1.0323 12.0015 1.0228 1.3748 0.1656 1.1025 0.7038 -6.6026 -1.4598 -2.6968 -17.8848 -0.7215 -3.1776 21.9104 -0.4454 -1.6806 9.9347 0.0000 -0.0000 0.0000 -85.3017 2.7346 24.0831 13.6098 -22.1742 -2.6791 -0.0000 0.0000 -8.3614 29.5830 19.0351 10.4895 -7.1250 0.0000 -0.0000 1.3799 51.6143 0.2248 0.0000 -0.0000 0.0000 89.7501 4.2846 7.4679 -13.0754 21.3976 -2.4807 0.0000 0.0000 5.4506 -20.1480 23.1208 -8.1982 7.1250 -0.0000 -0.0000 5.5465 -5.6209 5.0006
1.1122 17.9904 -23.5928 0.6705 -5.3261 -4.4447 0.0000 0.0000 0.0000 -25.1403 -4.5008 -6.6027 1.9852 8.8352 25.2812 0.3440 -3.0512 -10.4496 0.0048 -0.4477 -1.2303 0.0000 0.0000 0.0000 20.1711 7.8727 -20.2262 -13.8090 -19.0551 71.6202 -0.0316 -2.9661 -5.6816 -0.0367 -1.2358 3.3977 -0.6188 0.7965 12.1014 1.1726 1.0525 -0.0110 1.3996 0.5553 -6.8445 -1.7529 -2.5459 -17.0493 -0.6276 -2.9251 21.6892 -0.3150 -1.5793 9.7066 0.0000 -0.0000 0.0000 -85.3025 2.9801 23.9165 13.6727 -22.2649 -2.7029 -0.0000 0.0000 -8.4646 29.7528 18.1973 10.1212 -7.1250 0.0000 -0.0000 1.6854 50.7112 0.2373 0.0000 -0.0000 0.0000 89.5872 3.6477 7.7815 -13.0384 21.3435 -2.4673 0.0000 0.0000 5.2076 -20.1307 23.0203 -8.1574 7.1250 -0.0000 -0.0000 5.5486 -5.7276 4.9912
1.1095 17.9837 -23.4295 0.7962 -5.0762 -4.4913 0.0000 0.0000 0.0000 -25.4117 -4.4567 -5.9579 1.9907 8.8467 25.3169 0.3615 -2.9934 -10.7223 0.0005 -0.1474 -0.4050 0.0000 0.0000 0.0000 19.9079 7.9160 -21.1974 -13.4969 -18.9543 70.6619 -0.0702 -2.2337 -6.3460 -0.0613 -1.5971 4.3935 -0.9500 0.5550 12.0996 1.3476 0.6981 -0.1501 1.8355 0.3987 -6.9874 -2.0467 -2.3934 -16.2492 -0.6336 -2.6510 21.3374 -0.2181 -1.4778 9.4378 0.0000 -0.0000 0.0000 -85.3717 3.2433 23.7851 13.8411 -22.5071 -2.7670 -0.0000 0.0000 -8.5999 29.9882 17.7697 9.9884 -7.1250 0.0000 -0.0000 1.9854 50.2746 0.2582 0.0000 -0.0000 0.0000 89.3362 2.8564 8.6154 -13.2183 21.6062 -2.5331 0.0000 0.0000 4.5882 -20.0473 22.7584 -8.0349 7.1250 -0.0000 -0.0000 5.5782 -6.0120 4.9875
1.1020 17.9866 -23.2701 0.7681 -4.7616 -4.4366 0.0000 0.0000 0.0000 -25.4767 -4.5018 -5.4603 2.0081 8.8829 25.4296 0.4002 -2.9963 -11.2952 0.0009 -0.1980 -0.5440 0.0000 0.0000 0.0000 19.8541 8.0120 -22.2249 -13.1500 -18.8356 69.5907 -0.0993 -2.2733 -7.2447 -0.0536 -1.4938 4.1087 -1.0019 0.4607 12.0439 1.3814 0.5670 -0.0227 1.9239 0.3348 -6.8160 -1.9311 -2.4061 -16.7532 -0.6899 -2.6727 21.4128 -0.2670 -1.4842 9.5551 -0.0000 -0.0000 0.0000 -84.9619 2.7526 24.3903 14.0311 -22.7791 -2.8401 -0.0000 0.0000 -8.7964 30.0942 18.3401 10.3348 -7.1250 0.0000 -0.0000 2.0118 50.9328 0.2942 -0.0000 -0.0000 0.0000 89.4651 2.7337 8.6937 -13.3640 21.8183 -2.5870 0.0000 0.0000 4.0958 -19.9570 22.9639 -8.0635 7.1250 -0.0000 -0.0000 5.6521 -5.8134 5.0759
1.0957 17.9782 -23.1146 0.8064 -4.3961 -4.3441 0.0000 0.0000 0.0000 -25.6146 -4.5015 -4.9948 2.0119 8.8908 25.4542 0.4574 -3.0823 -12.0905 0.0128 -0.7315 -2.0104 0.0000 0.0000 0.0000 19.7083 8.0031 -23.3119 -12.7677 -18.6967 68.4024 -0.1211 -2.5255 -8.0091 -0.0121 -0.7095 1.9499 -0.8544 0.5001 11.9984 1.1356 0.6207 0.3516 1.5709 0.3467 -6.3899 -1.3865 -2.5464 -18.3659 -0.6286 -3.0012 21.6296 -0.4049 -1.5807 9.9239 0.0000 -0.0000 0.0000 -84.0534 1.4342 25.4703 14.0437 -22.7972 -2.8450 -0.0000 0.0000 -8.9723 30.2035 17.8582 10.1211 -7.1250 0.0000 -0.0000 2.1909 50.4122 0.2924 0.0000 -0.0000 0.0000 90.0418 3.3654 7.7425 -13.2981 21.7224 -2.5626 0.0000 0.0000 4.2317 -19.1988 24.2575 -8.1414 7.1250 -0.0000 -0.0000 6.2337 -4.6000 5.7485
1.0902 17.9627 -22.9536 0.9876 -4.2112 -4.2989 0.0000 0.0000 0.0000 -25.9111 -4.3850 -4.4857 2.0174 8.9022 25.4898 0.5105 -3.0257 -12.7995 0.0293 -1.1045 -3.0364 0.0000 0.0000 0.0000 19.4065 8.1240 -24.2802 -12.3580 -18.5379 67.1192 -0.1667 -2.3402 -8.9437 -0.0078 -0.5691 1.5637 -0.8775 0.6291 12.0590 0.8743 0.7692 0.7970 1.2835 0.4112 -5.9539 -0.9157 -2.7437 -20.4624 -0.5513 -3.4098 22.0247 -0.5507 -1.7119 10.4498 -0.0000 -0.0000 0.0000 -83.2613 -0.0418 26.3430 14.0879 -22.8602 -2.8622 -0.0000 0.0000 -8.9713 30.0337 17.2049 9.7041 -7.1250 0.0000 -0.0000 2.1067 49.6487 0.2416 -0.0000 -0.0000 0.0000 90.5767 4.0879 6.6950 -13.2842 21.7022 -2.5574 0.0000 0.0000 4.4602 -19.9844 23.1928 -8.1505 7.1250 -0.0000 -0.0000 5.6547 -5.5723 5.1044
1.0880 17.9458 -22.7926 1.2591 -4.1278 -4.3139 0.0000 0.0000 0.0000 -26.3177 -4.1816 -3.9689 2.0336 8.9357 25.5944 0.5499 -2.9688 -13.3081 0.0221 -0.9594 -2.6370 0.0000 0.0000 0.0000 19.0004 8.2735 -25.1481 -11.9210 -18.3570 65.7381 2.7368 -28.5546 -3.9052 -2.8203 -10.3983 30.2766 -1.6193 0.2894 12.2098 1.2962 0.2444 0.0896 2.2408 0.1951 -6.7790 -1.7877 -2.4587 -17.5052 -0.5142 -2.8089 21.1528 -0.2556 -1.5131 9.6037 -0.0000 0.0000 0.0000 -83.9022 1.5021 25.4298 14.4227 -23.3357 -2.9935 -0.0000 0.0000 -8.6951 29.8229 16.2591 9.1180 -7.1250 0.0000 -0.0000 2.0146 48.5502 0.1765 -0.0000 0.0000 0.0000 89.8202 2.1927 7.9375 -13.3669 21.8225 -2.5881 0.0000 0.0000 4.0814 -20.5707 22.7494 -8.2574 7.1250 -0.0000 -0.0000 5.2501 -5.9386 4.6990
1.0828 17.9268 -22.6365 1.5549 -3.9668 -4.3628 0.0000 0.0000 0.0000 -26.7248 -3.9199 -3.4584 2.0463 8.9618 25.6759 0.5880 -3.2278 -13.7444 0.0069 -0.5375 -1.4769 0.0000 0.0000 0.0000 18.5787 8.3196 -25.9559 -11.4485 -18.1477 64.2298 -0.0677 -7.5176 -12.0885 -0.0989 2.0277 -5.5822 -2.2088 0.1024 12.3875 1.4805 -0.0781 -0.0514 2.8311 0.0658 -7.0129 -2.0206 -2.3334 -16.8537 -0.6602 -2.5513 20.7133 -0.2211 -1.4289 9.3300 0.0000 -0.0000 0.0000 -84.0865 1.4863 25.0382 14.5045 -23.4514 -3.0260 -0.0000 0.0000 -8.5858 30.8905 13.2704 7.8195 -7.1250 0.0000 -0.0000 3.3163 45.3209 0.0263 0.0000 -0.0000 0.0000 89.5064 1.6005 8.3010 -13.4277 21.9107 -2.6107 0.0000 0.0000 4.0612 -20.8546 22.8528 -8.4158 7.1250 -0.0000 -0.0000 5.0820 -5.7855 4.5622
1.0744 17.9033 -22.4825 1.6724 -3.7363 -4.3804 0.0000 0.0000 0.0000 -26.9174 -3.7333 -2.9147 2.0461 8.9615 25.6750 0.6137 -3.6062 -14.0114 0.0071 0.5455 1.4990 0.0000 0.0000 0.0000 18.3845 8.3523 -26.7292 -10.9256 -17.8985 62.5399 -0.2413 -1.9246 -10.1900 -0.0461 -1.3853 3.8096 -2.1598 0.2212 12.5611 1.2213 0.0657 0.2754 2.5009 0.1222 -6.7707 -1.4556 -2.5850 -18.2976 -0.7181 -3.0119 20.9773 -0.4181 -1.6020 9.6797 -0.0000 -0.0000 0.0000 -83.1886 0.2497 26.2347 14.5451 -23.5086 -3.0422 -0.0000 0.0000 -9.1244 30.7450 17.5024 10.1423 -7.1250 0.0000 -0.0000 2.7844 50.1081 0.3508 -0.0000 -0.0000 0.0000 90.0729 1.9852 7.4845 -13.5209 22.0457 -2.6456 0.0000 0.0000 4.1165 -21.0825 22.4363 -8.3702 7.1250 -0.0000 -0.0000 4.9018 -6.1823 4.3618
1.0639 17.8897 -22.3198 1.6915 -3.6287 -4.2682 0.0000 0.0000 0.0000 -26.9920 -3.5537 -2.3788 2.0216 8.9109 25.5169 0.6391 -3.6755 -14.3005 0.0180 0.8668 2.3824 0.0000 0.0000 0.0000 18.3194 8.5812 -27.4104 -10.3301 -17.5913 60.5859 -0.4448 -1.5801 -13.2720 -0.1010 2.0493 -5.6420 -2.9644 -0.3039 12.5185 1.8980 -0.7021 -0.6106 3.8315 -0.1816 -7.6331 -2.5321 -2.0910 -14.7214 -0.7803 -2.1246 20.1233 -0.0940 -1.2815 8.7392 0.0000 0.0000 0.0000 -84.1089 2.3067 24.9627 14.8485 -23.9347 -3.1642 -0.0000 0.0000 -8.9895 31.1706 19.0707 11.1803 -7.1250 0.0000 -0.0000 3.0164 51.9559 0.5170 0.0000 0.0000 0.0000 88.9122 -0.3181 9.6091 -13.6769 22.2709 -2.7045 0.0000 0.0000 3.5688 -20.9600 22.2602 -8.2565 7.1250 -0.0000 -0.0000 4.9631 -6.3854 4.3972
1.0533 17.8927 -22.1543 1.7354 -3.6091 -4.0724 0.0000 0.0000 0.0000 -27.0981 -3.4406 -1.8295 1.9791 8.8223 25.2410 0.6828 -3.6324 -14.8015 0.0004 0.1267 0.3480 0.0000 0.0000 0.0000 18.2422 8.8301 -28.0033 -9.6704 -17.2203 58.3810 -0.3434 -3.2683 -12.7618 -0.0130 0.7358 -2.0221 -2.4655 0.0671 12.1637 1.3543 -0.1657 0.2536 2.8533 0.0180 -6.5557 -1.5948 -2.5478 -18.0508 -0.6506 -2.9407 20.6433 -0.3549 -1.5725 9.5201 -0.0000 -0.0000 0.0000 -82.7197 -0.2842 26.5546 14.8065 -23.8758 -3.1472 -0.0000 0.0000 -9.0878 31.2623 20.2211 11.8512 -7.1250 0.0000 -0.0000 2.9426 53.2679 0.5988 -0.0000 -0.0000 0.0000 90.0548 1.3872 7.7061 -13.6278 22.2001 -2.6859 0.0000 0.0000 3.9007 -20.6932 22.4719 -8.2156 7.1250 -0.0000 -0.0000 5.1491 -6.2074 4.5811
1.0452 17.9005 -21.9988 1.7917 -3.4915 -3.9955 0.0000 0.0000 0.0000 -27.2196 -3.2107 -1.1535 1.9159 8.6887 24.8264 0.7156 -3.6315 -15.1645 0.0306 1.1290 3.1037 0.0000 0.0000 0.0000 18.1353 9.0296 -28.3433 -8.9568 -16.7798 55.9405 -0.2896 -4.4164 -12.7659 -0.0025 0.3220 -0.8846 -2.8218 -0.2016 12.1825 1.6155 -0.5564 0.0055 3.4049 -0.1491 -6.7988 -2.0970 -2.3467 -16.6985 -0.4796 -2.5955 19.9068 -0.1434 -1.4323 9.0259 -0.0000 -0.0000 0.0000 -82.9530 0.1861 25.9550 15.0418 -24.2043 -3.2430 -0.0000 0.0000 -8.8534 32.0476 19.5541 11.8339 -7.1250 0.0000 -0.0000 3.8711 52.6745 0.7320 -0.0000 -0.0000 0.0000 89.6361 0.6699 8.5362 -13.6547 22.2390 -2.6961 0.0000 0.0000 3.6655 -20.6731 22.1926 -8.1115 7.1250 -0.0000 -0.0000 5.1375 -6.5012 4.5415
1.0347 17.9042 -21.8438 1.7138 -3.4857 -3.9543 0.0000 0.0000 0.0000 -27.1458 -2.8124 -0.4239 1.8314 8.5056 24.2606 0.7263 -3.6808 -15.2753 0.0713 1.7222 4.7384 0.0000 0.0000 0.0000 18.2113 9.3466 -28.5227 -8.2234 -16.2811 53.3633 -0.2576 -4.9415 -12.6883 -0.0029 -0.3466 0.9524 -2.9364 -0.2684 12.3001 1.7574 -0.6549 -0.1236 3.6432 -0.1846 -6.9927 -2.3381 -2.3532 -15.8871 -0.2849 -2.6087 19.3860 -0.0250 -1.4349 8.7067 -0.0000 -0.0000 0.0000 -82.8879 0.2663 25.9392 15.3900 -24.6866 -3.3872 -0.0000 0.0000 -9.2446 32.9748 18.7219 11.7633 -7.1250 0.0000 -0.0000 4.9432 51.9117 0.8430 -0.0000 -0.0000 0.0000 89.5525 0.1319 8.6655 -13.6652 22.2541 -2.7000 0.0000 0.0000 3.5728 -20.8673 22.0235 -8.1352 7.1250 -0.0000 -0.0000 5.0007 -6.6467 4.4055
